<?xml version="1.0" encoding="UTF-8"?>
<svg width="60px" height="60px" viewBox="0 0 60 60" version="1.1" xmlns="http://www.w3.org/2000/svg" xmlns:xlink="http://www.w3.org/1999/xlink">
    <!-- Generator: Sketch 47.1 (45422) - http://www.bohemiancoding.com/sketch -->
    <title>Artboard</title>
    <desc>Created with Sketch.</desc>
    <defs>
        <polygon id="path-1" points="3.46342361e-20 0.575638889 3.46342361e-20 21.7222222 22.5923889 21.7222222 22.5923889 0.575638889"></polygon>
        <polygon id="path-3" points="0.00217222222 0.176833333 3.60295 0.176833333 3.60295 4.91892222 0.00217222222 4.91892222 0.00217222222 0.176833333"></polygon>
        <polygon id="path-5" points="0.125211111 0.176833333 3.72598889 0.176833333 3.72598889 4.91892222 0.125211111 4.91892222 0.125211111 0.176833333"></polygon>
    </defs>
    <g id="Page-1" stroke="none" stroke-width="1" fill="none" fill-rule="evenodd">
        <g id="Artboard">
            <g id="Page-1" transform="translate(19.000000, 18.000000)">
                <g id="Group-3" transform="translate(0.000000, 1.657011)">
                    <mask id="mask-2" fill="white">
                        <use xlink:href="#path-1"></use>
                    </mask>
                    <g id="Clip-2"></g>
                    <path d="M3.94513889,0.575638889 L1.98502778,0.575638889 C0.882305556,0.575638889 -0.000638888889,1.45730556 -0.000638888889,2.56002778 L-0.000638888889,19.7371944 C-0.000638888889,20.8399167 0.882305556,21.7228611 1.98502778,21.7228611 L20.6073611,21.7228611 C21.7100833,21.7228611 22.5930278,20.8399167 22.5930278,19.7371944 L22.5930278,2.56002778 C22.5930278,1.45730556 21.7100833,0.575638889 20.6073611,0.575638889 L18.6715278,0.575638889" id="Fill-1" fill="#81818D" mask="url(#mask-2)"></path>
                </g>
                <path d="M15.2904,2.23265 L7.32728889,2.23265" id="Fill-4" fill="#000000"></path>
                <path d="M5.63589444,4.64598889 C4.81045,4.64598889 4.21117222,4.26648889 4.21117222,3.74515556 L4.21117222,1.55248889 C4.21117222,1.03115556 4.81045,0.652933333 5.63589444,0.652933333 C6.46133889,0.652933333 7.06061667,1.03115556 7.06061667,1.55248889 L7.06061667,3.74515556 C7.06061667,4.26648889 6.46133889,4.64598889 5.63589444,4.64598889" id="Fill-6" fill="#81818D"></path>
                <g id="Group-10" transform="translate(3.833333, 0.101456)">
                    <mask id="mask-4" fill="white">
                        <use xlink:href="#path-3"></use>
                    </mask>
                    <g id="Clip-9"></g>
                    <path d="M1.80256111,0.175811111 C0.759894444,0.175811111 0.00217222222,0.712477778 0.00217222222,1.45103333 L0.00217222222,3.6437 C0.00217222222,4.38225556 0.759894444,4.91892222 1.80256111,4.91892222 C2.84522778,4.91892222 3.60295,4.38225556 3.60295,3.6437 L3.60295,1.45103333 C3.60295,0.712477778 2.84522778,0.175811111 1.80256111,0.175811111 M1.80256111,0.927144444 C2.38906111,0.927144444 2.85161667,1.15842222 2.85161667,1.45103333 L2.85161667,3.6437 C2.85161667,3.93631111 2.38906111,4.16886667 1.80256111,4.16886667 C1.21606111,4.16886667 0.753505556,3.93631111 0.753505556,3.6437 L0.753505556,1.45103333 C0.753505556,1.15842222 1.21606111,0.927144444 1.80256111,0.927144444" id="Fill-8" fill="#FFFFFF" mask="url(#mask-4)"></path>
                </g>
                <path d="M16.9811556,4.64598889 C16.2093778,4.64598889 15.6126556,4.28437778 15.5589889,3.78476667 L15.5564333,1.55248889 C15.5564333,1.03115556 16.1557111,0.652933333 16.9811556,0.652933333 C17.8066,0.652933333 18.4058778,1.03115556 18.4058778,1.55248889 L18.4058778,3.74515556 C18.4058778,4.26648889 17.8066,4.64598889 16.9811556,4.64598889" id="Fill-11" fill="#81818D"></path>
                <g id="Group-15" transform="translate(15.055556, 0.101456)">
                    <mask id="mask-6" fill="white">
                        <use xlink:href="#path-5"></use>
                    </mask>
                    <g id="Clip-14"></g>
                    <path d="M1.9256,0.175811111 C0.882933333,0.175811111 0.125211111,0.712477778 0.125211111,1.45103333 L0.125211111,3.6437 L0.125211111,3.68331111 L0.130322222,3.72164444 C0.203155556,4.42697778 0.941711111,4.91892222 1.9256,4.91892222 C2.96826667,4.91892222 3.72598889,4.38225556 3.72598889,3.6437 L3.72598889,1.45103333 C3.72598889,0.712477778 2.96826667,0.175811111 1.9256,0.175811111 M1.9256,0.927144444 C2.5121,0.927144444 2.97465556,1.15842222 2.97465556,1.45103333 L2.97465556,3.6437 C2.97465556,3.93631111 2.5121,4.16886667 1.9256,4.16886667 C1.36976667,4.16886667 0.905933333,3.93631111 0.876544444,3.6437 L0.876544444,1.45103333 C0.876544444,1.15842222 1.3391,0.927144444 1.9256,0.927144444" id="Fill-13" fill="#FFFFFF" mask="url(#mask-6)"></path>
                </g>
                <path d="M1.91232222,8.9222 L20.6803222,8.9222" id="Stroke-16" stroke="#FFFFFF" stroke-width="0.881" stroke-linecap="round"></path>
                <path d="M7.62373333,14.0146556 L10.0630111,14.0146556 C10.5166222,14.0146556 10.8948444,13.6517667 10.8948444,13.2173222 L10.8948444,11.6954889 C10.8948444,11.2610444 10.5166222,10.8981556 10.0630111,10.8981556 L7.62373333,10.8981556 C7.1714,10.8981556 6.79445556,11.2610444 6.79445556,11.6954889 L6.79445556,13.2173222 C6.79445556,13.6517667 7.1714,14.0146556 7.62373333,14.0146556" id="Fill-18" fill="#FFFFFF"></path>
                <path d="M7.62373333,14.0146556 L10.0630111,14.0146556 C10.5166222,14.0146556 10.8948444,13.6517667 10.8948444,13.2173222 L10.8948444,11.6954889 C10.8948444,11.2610444 10.5166222,10.8981556 10.0630111,10.8981556 L7.62373333,10.8981556 C7.1714,10.8981556 6.79445556,11.2610444 6.79445556,11.6954889 L6.79445556,13.2173222 C6.79445556,13.6517667 7.1714,14.0146556 7.62373333,14.0146556 Z" id="Stroke-20" stroke="#81818D" stroke-width="0.587"></path>
                <path d="M12.50395,14.0146556 L14.9432278,14.0146556 C15.3968389,14.0146556 15.7750611,13.6517667 15.7750611,13.2173222 L15.7750611,11.6954889 C15.7750611,11.2610444 15.3968389,10.8981556 14.9432278,10.8981556 L12.50395,10.8981556 C12.0516167,10.8981556 11.6746722,11.2610444 11.6746722,11.6954889 L11.6746722,13.2173222 C11.6746722,13.6517667 12.0516167,14.0146556 12.50395,14.0146556" id="Fill-22" fill="#FFFFFF"></path>
                <path d="M12.50395,14.0146556 L14.9432278,14.0146556 C15.3968389,14.0146556 15.7750611,13.6517667 15.7750611,13.2173222 L15.7750611,11.6954889 C15.7750611,11.2610444 15.3968389,10.8981556 14.9432278,10.8981556 L12.50395,10.8981556 C12.0516167,10.8981556 11.6746722,11.2610444 11.6746722,11.6954889 L11.6746722,13.2173222 C11.6746722,13.6517667 12.0516167,14.0146556 12.50395,14.0146556 Z" id="Stroke-24" stroke="#81818D" stroke-width="0.587"></path>
                <path d="M17.4092111,14.0146556 L19.8484889,14.0146556 C20.3021,14.0146556 20.6803222,13.6517667 20.6803222,13.2173222 L20.6803222,11.6954889 C20.6803222,11.2610444 20.3021,10.8981556 19.8484889,10.8981556 L17.4092111,10.8981556 C16.9568778,10.8981556 16.5799333,11.2610444 16.5799333,11.6954889 L16.5799333,13.2173222 C16.5799333,13.6517667 16.9313222,14.0146556 17.4092111,14.0146556" id="Fill-26" fill="#FFFFFF"></path>
                <path d="M17.4092111,14.0146556 L19.8484889,14.0146556 C20.3021,14.0146556 20.6803222,13.6517667 20.6803222,13.2173222 L20.6803222,11.6954889 C20.6803222,11.2610444 20.3021,10.8981556 19.8484889,10.8981556 L17.4092111,10.8981556 C16.9568778,10.8981556 16.5799333,11.2610444 16.5799333,11.6954889 L16.5799333,13.2173222 C16.5799333,13.6517667 16.9313222,14.0146556 17.4092111,14.0146556 Z" id="Stroke-28" stroke="#81818D" stroke-width="0.587"></path>
                <path d="M2.74338889,17.7830778 L5.18394444,17.7830778 C5.63627778,17.7830778 6.0145,17.4201889 6.0145,16.9857444 L6.0145,15.4639111 C6.0145,15.0294667 5.63627778,14.6665778 5.18394444,14.6665778 L2.74338889,14.6665778 C2.29105556,14.6665778 1.91411111,15.0294667 1.91411111,15.4639111 L1.91411111,16.9857444 C1.91411111,17.4201889 2.2655,17.7830778 2.74338889,17.7830778" id="Fill-30" fill="#FFFFFF"></path>
                <path d="M2.74338889,17.7830778 L5.18394444,17.7830778 C5.63627778,17.7830778 6.0145,17.4201889 6.0145,16.9857444 L6.0145,15.4639111 C6.0145,15.0294667 5.63627778,14.6665778 5.18394444,14.6665778 L2.74338889,14.6665778 C2.29105556,14.6665778 1.91411111,15.0294667 1.91411111,15.4639111 L1.91411111,16.9857444 C1.91411111,17.4201889 2.2655,17.7830778 2.74338889,17.7830778 Z" id="Stroke-32" stroke="#81818D" stroke-width="0.587"></path>
                <path d="M7.62373333,17.7830778 L10.0630111,17.7830778 C10.5166222,17.7830778 10.8948444,17.4201889 10.8948444,16.9857444 L10.8948444,15.4639111 C10.8948444,15.0294667 10.5166222,14.6665778 10.0630111,14.6665778 L7.62373333,14.6665778 C7.1714,14.6665778 6.79445556,15.0294667 6.79445556,15.4639111 L6.79445556,16.9857444 C6.79445556,17.4201889 7.1714,17.7830778 7.62373333,17.7830778" id="Fill-34" fill="#FFFFFF"></path>
                <path d="M7.62373333,17.7830778 L10.0630111,17.7830778 C10.5166222,17.7830778 10.8948444,17.4201889 10.8948444,16.9857444 L10.8948444,15.4639111 C10.8948444,15.0294667 10.5166222,14.6665778 10.0630111,14.6665778 L7.62373333,14.6665778 C7.1714,14.6665778 6.79445556,15.0294667 6.79445556,15.4639111 L6.79445556,16.9857444 C6.79445556,17.4201889 7.1714,17.7830778 7.62373333,17.7830778 Z" id="Stroke-36" stroke="#81818D" stroke-width="0.587"></path>
                <path d="M12.50395,17.7830778 L14.9432278,17.7830778 C15.3968389,17.7830778 15.7750611,17.4201889 15.7750611,16.9857444 L15.7750611,15.4639111 C15.7750611,15.0294667 15.3968389,14.6665778 14.9432278,14.6665778 L12.50395,14.6665778 C12.0516167,14.6665778 11.6746722,15.0294667 11.6746722,15.4639111 L11.6746722,16.9857444 C11.6746722,17.4201889 12.0516167,17.7830778 12.50395,17.7830778" id="Fill-38" fill="#FFFFFF"></path>
                <path d="M12.50395,17.7830778 L14.9432278,17.7830778 C15.3968389,17.7830778 15.7750611,17.4201889 15.7750611,16.9857444 L15.7750611,15.4639111 C15.7750611,15.0294667 15.3968389,14.6665778 14.9432278,14.6665778 L12.50395,14.6665778 C12.0516167,14.6665778 11.6746722,15.0294667 11.6746722,15.4639111 L11.6746722,16.9857444 C11.6746722,17.4201889 12.0516167,17.7830778 12.50395,17.7830778 Z" id="Stroke-40" stroke="#81818D" stroke-width="0.587"></path>
                <path d="M17.4092111,17.7830778 L19.8484889,17.7830778 C20.3021,17.7830778 20.6803222,17.4201889 20.6803222,16.9857444 L20.6803222,15.4639111 C20.6803222,15.0294667 20.3021,14.6665778 19.8484889,14.6665778 L17.4092111,14.6665778 C16.9568778,14.6665778 16.5799333,15.0294667 16.5799333,15.4639111 L16.5799333,16.9857444 C16.5799333,17.4201889 16.9313222,17.7830778 17.4092111,17.7830778" id="Fill-42" fill="#FFFFFF"></path>
                <path d="M17.4092111,17.7830778 L19.8484889,17.7830778 C20.3021,17.7830778 20.6803222,17.4201889 20.6803222,16.9857444 L20.6803222,15.4639111 C20.6803222,15.0294667 20.3021,14.6665778 19.8484889,14.6665778 L17.4092111,14.6665778 C16.9568778,14.6665778 16.5799333,15.0294667 16.5799333,15.4639111 L16.5799333,16.9857444 C16.5799333,17.4201889 16.9313222,17.7830778 17.4092111,17.7830778 Z" id="Stroke-44" stroke="#81818D" stroke-width="0.587"></path>
                <path d="M2.74338889,21.5515 L5.18394444,21.5515 C5.63627778,21.5515 6.0145,21.1886111 6.0145,20.7541667 L6.0145,19.2323333 C6.0145,18.7978889 5.63627778,18.435 5.18394444,18.435 L2.74338889,18.435 C2.29105556,18.435 1.91411111,18.7978889 1.91411111,19.2323333 L1.91411111,20.7541667 C1.91411111,21.1886111 2.2655,21.5515 2.74338889,21.5515" id="Fill-46" fill="#FFFFFF"></path>
                <path d="M2.74338889,21.5515 L5.18394444,21.5515 C5.63627778,21.5515 6.0145,21.1886111 6.0145,20.7541667 L6.0145,19.2323333 C6.0145,18.7978889 5.63627778,18.435 5.18394444,18.435 L2.74338889,18.435 C2.29105556,18.435 1.91411111,18.7978889 1.91411111,19.2323333 L1.91411111,20.7541667 C1.91411111,21.1886111 2.2655,21.5515 2.74338889,21.5515 Z" id="Stroke-48" stroke="#81818D" stroke-width="0.587"></path>
                <path d="M7.62373333,21.5515 L10.0630111,21.5515 C10.5166222,21.5515 10.8948444,21.1886111 10.8948444,20.7541667 L10.8948444,19.2323333 C10.8948444,18.7978889 10.5166222,18.435 10.0630111,18.435 L7.62373333,18.435 C7.1714,18.435 6.79445556,18.7978889 6.79445556,19.2323333 L6.79445556,20.7541667 C6.79445556,21.1886111 7.1714,21.5515 7.62373333,21.5515" id="Fill-50" fill="#FFFFFF"></path>
                <path d="M7.62373333,21.5515 L10.0630111,21.5515 C10.5166222,21.5515 10.8948444,21.1886111 10.8948444,20.7541667 L10.8948444,19.2323333 C10.8948444,18.7978889 10.5166222,18.435 10.0630111,18.435 L7.62373333,18.435 C7.1714,18.435 6.79445556,18.7978889 6.79445556,19.2323333 L6.79445556,20.7541667 C6.79445556,21.1886111 7.1714,21.5515 7.62373333,21.5515 Z" id="Stroke-52" stroke="#81818D" stroke-width="0.587"></path>
                <path d="M12.50395,21.5515 L14.9432278,21.5515 C15.3968389,21.5515 15.7750611,21.1886111 15.7750611,20.7541667 L15.7750611,19.2323333 C15.7750611,18.7978889 15.3968389,18.435 14.9432278,18.435 L12.50395,18.435 C12.0516167,18.435 11.6746722,18.7978889 11.6746722,19.2323333 L11.6746722,20.7541667 C11.6746722,21.1886111 12.0516167,21.5515 12.50395,21.5515" id="Fill-54" fill="#FFFFFF"></path>
                <path d="M12.50395,21.5515 L14.9432278,21.5515 C15.3968389,21.5515 15.7750611,21.1886111 15.7750611,20.7541667 L15.7750611,19.2323333 C15.7750611,18.7978889 15.3968389,18.435 14.9432278,18.435 L12.50395,18.435 C12.0516167,18.435 11.6746722,18.7978889 11.6746722,19.2323333 L11.6746722,20.7541667 C11.6746722,21.1886111 12.0516167,21.5515 12.50395,21.5515 Z" id="Stroke-56" stroke="#81818D" stroke-width="0.587"></path>
            </g>
        </g>
    </g>
</svg>