<?xml version="1.0" encoding="UTF-8"?>
<svg width="60px" height="60px" viewBox="0 0 60 60" version="1.1" xmlns="http://www.w3.org/2000/svg" xmlns:xlink="http://www.w3.org/1999/xlink">
    <!-- Generator: Sketch 47.1 (45422) - http://www.bohemiancoding.com/sketch -->
    <title>Artboard Copy 2</title>
    <desc>Created with Sketch.</desc>
    <defs></defs>
    <g id="Page-1" stroke="none" stroke-width="1" fill="none" fill-rule="evenodd">
        <g id="Artboard-Copy-2" fill="#81818D">
            <g id="Page-1" transform="translate(18.000000, 20.000000)">
                <path d="M0,3.53670323 L0,18.8809908 L1.11022302e-16,18.8809908 C2.10694958e-15,19.1571332 0.223857625,19.3809908 0.5,19.3809908 C0.556829493,19.3809908 0.613243094,19.3713025 0.666816433,19.3523424 L7.00954627,17.1075813 L7.00954627,17.1075813 C7.20924208,17.0369068 7.34272984,16.848063 7.34272984,16.6362298 L7.34272984,1.29194222 L7.34272984,1.29194222 C7.34272984,1.01579985 7.11887221,0.791942223 6.84272984,0.791942223 C6.78590035,0.791942223 6.72948674,0.801630493 6.67591341,0.820590679 L0.333183567,3.06535169 L0.333183567,3.06535169 C0.13348776,3.1360262 7.95684758e-18,3.32487004 2.22044605e-16,3.53670323 Z" id="Fill-1"></path>
                <path d="M8.78373982,0.820525947 L15.1264697,3.06528696 L15.1264697,3.06528696 C15.3261655,3.13596147 15.4596532,3.3248053 15.4596532,3.5366385 L15.4596532,18.8812497 L15.4596532,18.8812497 C15.4596532,19.1573921 15.2357956,19.3812497 14.9596532,19.3812497 C14.9028237,19.3812497 14.8464101,19.3715615 14.7928368,19.3526013 L8.45010695,17.1078403 L8.45010695,17.1078403 C8.25041115,17.0371658 8.11692339,16.8483219 8.11692339,16.6364887 L8.11692339,1.29187749 L8.11692339,1.29187749 C8.11692339,1.01573512 8.34078101,0.791877491 8.61692339,0.791877491 C8.67375288,0.791877491 8.73016648,0.801565761 8.78373982,0.820525947 Z" id="Fill-2"></path>
                <path d="M16.2337415,3.52387158 L16.2337415,18.8681738 L16.2337415,18.8681738 C16.2337415,19.1443162 16.4575992,19.3681738 16.7337415,19.3681738 C16.790571,19.3681738 16.8469846,19.3584856 16.900558,19.3395254 L23.2432878,17.0947644 L23.2432878,17.0947644 C23.4429836,17.0240899 23.5764714,16.835246 23.5764714,16.6234128 L23.5764714,1.27883099 L23.5764714,1.27883099 C23.5764714,1.00268862 23.3526137,0.778830991 23.0764714,0.778830991 C23.0196353,0.778830991 22.9632153,0.788521503 22.9096365,0.807485982 L16.5669066,3.05252657 L16.5669066,3.05252657 C16.3672204,3.12320651 16.2337415,3.31204557 16.2337415,3.52387158 Z" id="Fill-3"></path>
            </g>
        </g>
    </g>
</svg>